<svg width="40" height="40" viewBox="0 0 40 40" fill="none" xmlns="http://www.w3.org/2000/svg">
<rect width="40" height="40" rx="8" fill="#EFEFEF"/>
<path d="M13.0029 28C13.0029 29.103 13.8999 30 15.0029 30H25.0029C26.1059 30 27.0029 29.103 27.0029 28V16H29.0029V14H26.0029H25.0029V12C25.0029 10.897 24.1059 10 23.0029 10H17.0029C15.8999 10 15.0029 10.897 15.0029 12V14H14.0029H11.0029V16H13.0029V28ZM17.0029 12H23.0029V14H17.0029V12ZM16.0029 16H24.0029H25.0029L25.0039 28H15.0029V16H16.0029Z" fill="#828282"/>
<path d="M17.0029 18H19.0029V26H17.0029V18ZM21.0029 18H23.0029V26H21.0029V18Z" fill="#828282"/>
</svg>
