<svg width="1440" height="1024" viewBox="0 0 1440 1024" fill="none" xmlns="http://www.w3.org/2000/svg">
<path d="M-81.898 535.536C-135.348 579.42 -179.069 506.007 -186.392 486.322L-188 103H1359.05C1366.38 396.825 1514.03 1188.12 1498.92 1227.26C1484.25 1265.26 1302.25 1226.17 1240.09 1243.12C1146.88 1268.54 1034.93 1222.2 944.827 1125.56C871.413 1046.81 817.29 1041.89 743.34 1068.14C654.329 1099.73 541.853 1022.21 535.423 925.966C526.904 798.473 272.311 889.329 298.569 777.778C320.33 685.328 162.994 701.769 129.77 629.042C60.5665 477.555 -35.2774 497.258 -81.898 535.536Z" fill="url(#paint0_linear_1_837)"/>
<path d="M-53.8951 32.9955C-53.8951 -17.1547 -117.154 -57.215 -150 -71H1544V549.324C1496.96 531.282 1454.83 540.931 1436.34 682.511C1413.22 859.486 1330.24 698.713 1297.05 756.099C1216.15 895.976 1145.59 705.013 1050.09 800.494C990.718 859.861 845.719 953.751 845.719 822.996C845.719 785.103 908.775 664.469 953.381 624.128L909.586 578.516L805.574 682.511C744.546 734.408 622.488 838.2 587.209 578.516C551.93 318.831 415.072 595.544 387.092 363.835C362.735 162.129 240.502 486.683 170.552 289.031C104.396 102.099 54.9831 206.929 -11.317 174.089C-77.6172 141.248 -53.8951 63.4035 -53.8951 32.9955Z" fill="url(#paint1_linear_1_837)"/>
<path d="M1120.88 470.458C1121.38 469.504 1122.07 468.721 1122.56 467.767C1122.72 467.387 1123.06 466.996 1123.24 466.8C1123.57 466.225 1123.91 465.834 1124.25 465.259C1124.75 464.488 1125.26 463.718 1125.58 462.959C1125.75 462.763 1125.92 462.568 1125.9 462.2C1126.58 461.234 1127.07 460.279 1127.73 459.129C1128.08 458.738 1128.23 458.174 1128.57 457.783C1129.73 455.678 1130.9 453.757 1131.88 451.664C1132.21 451.089 1132.37 450.71 1132.7 450.135C1133.02 449.376 1133.53 448.605 1133.85 447.846C1134.02 447.651 1134.01 447.467 1134.18 447.271C1134.68 446.317 1135.16 445.178 1135.65 444.223C1135.82 444.028 1135.81 443.844 1135.98 443.648C1137.13 441.36 1138.09 439.083 1139.06 436.806C1139.04 436.622 1139.23 436.61 1139.22 436.426C1146.6 418.97 1150.87 401.896 1153.25 386.973L1156 360.579C1156.9 339.841 1155.54 312.6 1148.01 304.585C1147.81 304.413 1147.81 304.413 1147.62 304.24C1147.42 304.068 1147.23 303.896 1147.03 303.724C1143.73 301.164 1139.06 300.353 1130.79 300.879C1124.53 301.276 1117.93 303.14 1109 305L1096 309L1082 314L1069.5 319.5L1061 324L1039.5 335L1024 344.5L1011.5 353.5L999.512 364.02L989.689 373.52L982.512 381.02C982.512 381.02 978.385 386.52 975.818 390.124C973.614 393.219 971.582 396.118 969.551 399.016C968.815 399.063 968.263 399.098 967.54 399.329L965.884 399.434C957.472 400.707 947.129 403.58 936.434 409.615C908.599 424.863 866.678 479.966 865.038 494.842C864.548 498.75 865.885 502.358 868.612 504.585C870.568 506.308 873.212 507.247 875.971 507.072C879.281 506.862 882.337 505.56 894.883 499.592C904.385 495.111 917.654 488.913 932.419 482.989L932.775 482.782C933.499 482.551 934.211 482.137 934.935 481.906C936.199 481.456 937.279 481.018 938.543 480.569C938.727 480.557 938.899 480.362 939.083 480.35C939.267 480.338 939.623 480.131 939.807 480.119C939.568 482.166 939.892 484.361 940.744 486.153C940.768 486.521 940.596 486.716 940.619 487.084C939.91 490.453 940.5 493.924 942.353 496.945C944.207 499.966 948.087 505.813 954.623 512.783L909.582 562.361C908.177 560.604 906.613 559.226 905.439 558.192C899.802 553.75 892.834 551.608 885.834 551.868C878.294 552.347 871.309 555.745 866.878 561.566C866.718 561.946 866.361 562.153 866.201 562.533C861.095 560.641 855.312 559.716 849.611 560.079C847.221 560.23 844.842 560.566 842.658 561.074C836.192 555.207 827.487 551.883 818.476 552.456C817.924 552.491 817.373 552.526 816.821 552.561C808.017 553.49 799.975 557.694 794.511 564.688C788.851 571.51 786.262 580.169 787.203 589.156C787.796 595.581 790.205 601.522 794.21 606.437C792.686 611.519 792.094 616.727 792.801 622.037C795.076 643.311 813.438 659.132 834.782 657.96C835.518 657.913 836.07 657.878 836.805 657.831C840.656 657.402 844.471 656.421 848.067 654.9C852.283 663.126 859.703 669.486 869.269 671.832C869.202 673.683 869.319 675.522 869.424 677.177C871.723 698.819 890.281 714.812 911.993 713.617C912.728 713.57 913.28 713.535 914.016 713.488C918.418 713.024 922.773 711.824 926.725 710.095C934.336 722.352 948.103 729.786 963.379 729C964.114 728.953 964.666 728.918 965.401 728.872C987.595 726.538 1003.87 706.67 1001.71 684.28C999.902 667.408 987.944 653.581 971.974 649.241C969.518 642.565 965.271 636.742 959.438 632.127C959.998 629.322 960.007 626.552 959.452 623.633C958.573 618.518 955.867 613.705 951.932 609.893L996.669 543.901C1002.96 547.01 1007.87 548.729 1010.5 549.485C1012.01 549.943 1013.69 550.205 1015.34 550.1C1017.18 549.983 1018.81 549.51 1020.43 548.853C1020.79 548.646 1020.97 548.634 1021.33 548.427C1022.08 548.564 1022.81 548.518 1023.73 548.459C1025.02 548.377 1026.3 548.112 1027.56 547.662C1027.58 548.03 1027.41 548.225 1027.43 548.593C1027.45 548.777 1027.45 548.777 1027.46 548.961C1027.35 550.26 1027.08 551.755 1026.98 553.054C1026.83 553.617 1026.85 553.985 1026.7 554.548L1026.59 555.663C1024.46 571.494 1021.67 585.704 1019.75 596.166C1018.79 601.397 1017.93 605.329 1017.58 608.491C1016.94 612.963 1015.85 619.125 1021.44 622.832C1023.37 624.187 1025.82 624.954 1028.21 624.802C1030.97 624.627 1039.42 623.905 1065.18 590.509C1073.03 580.409 1091.51 554.492 1096.86 534.026C1099.67 523.138 1100.28 512.389 1099.49 502.838L1099.18 500.827C1099.14 500.275 1099.11 499.723 1098.88 499C1103.88 493.511 1108.68 487.667 1113.63 481.259C1116.36 477.762 1118.14 474.474 1120.5 471C1120.5 471 1120.71 470.654 1120.88 470.458Z" fill="white"/>
<path d="M963.453 658.702C962.285 651.945 958.726 645.339 952.514 640.564C950.57 639.025 948.453 637.683 946.176 636.72C946.348 636.524 946.521 636.328 946.693 636.133C951.135 630.496 949.483 621.922 943.259 616.963C941.315 615.425 939.233 614.634 937.164 614.027L998.095 523.926L974.787 505.834L905.565 581.691C906.663 575.713 901.989 568.993 898.883 566.606C890.726 560.292 879.704 561.177 874.068 568.367C872.024 571.082 870.936 574.29 870.778 577.624C861.597 569.714 848.056 568.728 838.922 573.186C834.236 566.282 826.037 562.187 817.037 562.944C804.199 564.314 794.774 575.807 796.144 588.645C796.736 595.07 800.053 600.768 804.908 604.521C802.269 609.49 801.172 615.468 801.741 621.525C803.54 638.214 818.335 650.199 835.035 648.583C842.368 647.748 848.985 644.373 853.659 639.46C852.912 650.956 860.958 661.338 872.535 663.372C874.961 663.772 877.547 663.792 879.926 663.456C878.344 667.619 877.717 672.275 878.193 676.861C880.004 693.733 895.006 706.074 911.878 704.264C919.027 703.44 925.3 700.456 929.985 695.727C933.334 710.655 947.483 721.204 963.068 719.475C979.94 717.664 992.281 702.662 990.47 685.79C989.915 671.238 977.937 659.998 963.453 658.702Z" fill="url(#paint2_linear_1_837)"/>
<path d="M966.442 461.681C921.098 474.533 876.72 499.695 874.971 498.329C870.473 494.368 912.493 435.012 940.857 419.361C965.648 405.599 991.686 408.56 998.669 413.841C1003.51 417.41 966.442 461.681 966.442 461.681Z" fill="url(#paint3_linear_1_837)"/>
<path d="M988.837 410.219C983.802 409.431 977.503 409.093 970.538 409.905C970.021 410.491 944.119 438.726 930.5 474.305C941.484 469.914 953.216 465.66 964.994 462.142L988.837 410.219Z" fill="url(#paint4_linear_1_837)"/>
<path d="M1039.1 518.365C1037.66 565.357 1024.17 614.591 1026.1 615.946C1030.93 619.332 1078.19 563.889 1086.53 532.523C1093.65 505.113 1084.52 480.581 1077.71 475.105C1072.86 471.351 1039.1 518.365 1039.1 518.365Z" fill="url(#paint5_linear_1_837)"/>
<path d="M1083.63 483.961C1085.77 488.626 1087.45 494.613 1088.44 501.566C1087.94 502.337 1067.07 534.314 1035.97 556.232C1037.44 544.506 1038.68 532.056 1039.2 519.836L1083.63 483.961Z" fill="url(#paint6_linear_1_837)"/>
<path d="M1012.86 541.267C1013.8 541.576 1014.72 541.518 1015.62 541.092C1033.54 532.567 1054.2 514.82 1077.25 485.29C1126.59 421.96 1118.03 351.231 1113.56 347.637C1109.09 344.228 1038.39 353.153 989.062 416.667C966.012 446.198 953.899 470.602 949.977 490.239C949.852 491.17 949.922 492.274 950.52 492.974C952.984 496.88 961.342 509.274 977.85 522.073C994.347 534.688 1008.34 539.892 1012.86 541.267Z" fill="url(#paint7_linear_1_837)"/>
<path d="M1012.86 541.267C1013.8 541.576 1014.72 541.518 1015.62 541.092C1033.54 532.567 1054.2 514.82 1077.25 485.29C1126.59 421.96 1118.03 351.231 1113.56 347.637C1109.09 344.228 1038.39 353.153 989.062 416.667C966.012 446.198 953.899 470.602 949.977 490.239C949.852 491.17 949.922 492.274 950.52 492.974C952.984 496.88 961.342 509.274 977.85 522.073C994.347 534.688 1008.34 539.892 1012.86 541.267Z" fill="#AA21B5"/>
<path d="M1020.87 539.465C1021.81 539.775 1022.74 539.9 1023.64 539.474C1041.34 533.179 1060.69 518.101 1081.18 491.872C1125.05 435.537 1134.66 330.971 1129.61 327.045C1124.56 323.119 1025.59 358.029 981.715 414.364C961.224 440.593 951.569 462.995 949.807 481.756C949.682 482.687 949.936 483.779 950.534 484.48C953.378 488.546 963.633 501.742 982.293 516.436C1000.95 531.13 1016.33 537.723 1020.87 539.465Z" fill="url(#paint8_radial_1_837)"/>
<path d="M1033.95 536.049C1055.41 528.038 1079.34 509.346 1105.12 476.318C1158.89 407.167 1146.53 317.292 1140.69 312.677C1134.86 308.062 1044.66 318.226 990.894 387.376C965.295 420.393 952.841 448.142 950.601 470.996C950.601 470.996 961.919 489.295 987.757 509.441C1013.41 529.599 1033.95 536.049 1033.95 536.049Z" fill="url(#paint9_linear_1_837)"/>
<path d="M1033.95 536.049C1055.41 528.038 1079.34 509.346 1105.12 476.318C1158.89 407.167 1146.53 317.292 1140.69 312.677C1134.86 308.062 1044.66 318.226 990.894 387.376C965.295 420.393 952.841 448.142 950.601 470.996C950.601 470.996 961.919 489.295 987.757 509.441C1013.41 529.599 1033.95 536.049 1033.95 536.049Z" fill="url(#paint10_linear_1_837)"/>
<path opacity="0.55" d="M1140.69 312.677C1146.53 317.291 1135.77 389.248 1082.01 458.398C1056.91 490.644 1028.13 514.261 1006.69 522.64C1022.83 532.509 1033.95 536.049 1033.95 536.049C1055.41 528.038 1079.34 509.346 1105.12 476.317C1158.9 407.351 1146.53 317.291 1140.69 312.677Z" fill="url(#paint11_linear_1_837)"/>
<g opacity="0.5">
<path d="M921.684 629.043C926.688 632.234 929.59 637.219 929.905 642.185C929.94 642.736 930.676 642.69 930.653 642.322C931.934 636.332 929.099 629.495 923.106 625.26C921.564 624.25 920.035 623.424 918.344 622.978L986.094 523.949L914.045 622.143C912.378 622.064 910.539 622.181 908.907 622.654C910.031 619.998 910.004 616.676 908.139 613.471C905.444 608.841 899.947 606.606 895.052 608.025C893.788 608.474 892.708 608.912 891.835 609.706C891.479 609.913 891.882 610.442 892.238 610.235C892.962 610.004 893.502 609.785 894.226 609.554C898.605 608.722 903.366 611.004 906.014 614.898C907.66 617.563 908.031 620.494 907.448 622.932C905.46 623.612 903.875 624.821 902.301 626.213C900.912 627.594 900.098 629.307 899.467 631.009C899.318 631.573 900.077 631.894 900.422 631.503C901.111 630.72 901.799 629.938 902.672 629.144C907.783 625.311 915.519 625.004 921.684 629.043Z" fill="url(#paint12_linear_1_837)"/>
<path d="M893.688 589.462C893.895 589.818 894.619 589.588 894.412 589.232C892.176 583.096 886.32 578.113 879.261 577.454C871.272 576.669 864.38 581.539 863.192 589C862.953 591.046 862.886 592.897 863.371 594.713C863.406 595.264 864.325 595.206 864.29 594.654C864.404 593.539 864.518 592.424 864.827 591.481C866.637 585.088 872.839 581.001 879.886 581.477C885.634 581.85 890.637 585.04 893.688 589.462Z" fill="url(#paint13_linear_1_837)"/>
<path d="M907.049 593.414L906.719 596.943L983.936 504.514L907.049 593.414Z" fill="url(#paint14_linear_1_837)"/>
<path d="M954.764 681.781C954.431 682.356 953.903 682.759 953.19 683.173C949.86 685.97 944.711 686.297 940.685 683.968C938.005 682.477 936.382 680.179 935.678 677.824C936.872 676.271 937.87 674.545 938.489 672.66C938.924 670.786 938.991 668.935 938.702 667.291C938.667 666.74 937.747 666.798 937.782 667.35C937.657 668.281 937.359 669.408 937.05 670.351C934.654 676.227 928.255 680.142 921.025 679.678C915.277 679.305 910.469 676.287 907.809 672.209C907.602 671.853 906.878 672.084 907.086 672.44C908.931 678.231 914.384 682.685 921.454 683.528C926.662 684.121 931.534 682.334 934.841 679.169C935.212 682.1 936.858 684.765 939.745 686.613C944.162 689.287 950.035 688.729 953.503 685.185C954.364 684.207 955.041 683.24 955.534 682.286C955.499 681.734 954.936 681.585 954.764 681.781Z" fill="url(#paint15_linear_1_837)"/>
<path d="M846.811 610.167C845.904 610.409 844.812 610.663 843.708 610.733C837.272 611.142 831.095 606.919 828.467 600.439C826.278 595.038 826.846 589.463 829.348 585.242C829.508 584.862 829.106 584.334 828.761 584.725C824.409 588.879 822.635 595.824 825.09 602.5C826.877 607.372 830.616 611.012 834.779 612.593C832.286 614.044 830.611 616.736 830.281 620.265C829.873 625.461 832.958 630.435 837.489 631.994C838.627 632.475 839.927 632.577 841.03 632.507C841.398 632.484 841.363 631.932 840.995 631.955C840.431 631.807 839.684 631.669 839.109 631.337C835.119 629.559 832.608 624.918 832.879 620.469C833.06 617.503 834.367 614.835 836.297 613.236C838.171 613.67 840.217 613.91 842.217 613.413C844.044 613.112 845.653 612.272 847.249 611.247C847.594 610.856 847.179 610.144 846.811 610.167Z" fill="url(#paint16_linear_1_837)"/>
</g>
<path d="M1036.61 450.021C1031.36 445.922 994.53 467.835 990.31 476.967C990.31 476.967 940.562 565.803 944.255 568.708C947.947 571.612 1021.78 501.555 1021.78 501.555C1029.88 495.317 1041.85 454.119 1036.61 450.021Z" fill="url(#paint17_linear_1_837)"/>
<path d="M1036.61 450.021C1031.36 445.922 994.53 467.835 990.31 476.967C990.31 476.967 940.562 565.803 944.255 568.708C947.947 571.612 1021.78 501.555 1021.78 501.555C1029.88 495.317 1041.85 454.119 1036.61 450.021Z" fill="url(#paint18_linear_1_837)"/>
<path d="M1036.61 450.021C1031.36 445.923 994.53 467.835 990.31 476.967C990.31 476.967 958.148 543.267 961.841 546.171C965.534 549.076 1021.79 501.555 1021.79 501.555C1029.88 495.317 1041.85 454.119 1036.61 450.021Z" fill="url(#paint19_linear_1_837)"/>
<path d="M1119.22 413.565C1103.69 433.57 1074.93 437.06 1054.92 421.529C1034.91 405.998 1031.42 377.23 1046.96 357.225C1062.49 337.219 1091.26 333.729 1111.26 349.26C1131.07 364.62 1134.76 393.559 1119.22 413.565Z" fill="url(#paint20_linear_1_837)"/>
<path d="M1110.1 406.574C1098.15 421.921 1076.17 424.61 1060.82 412.66C1058.69 411.134 1056.92 409.4 1055.5 407.459C1052.91 404.484 1051.03 400.912 1049.69 397.304C1047.27 391.18 1046.65 384.387 1048.08 377.833C1049.04 372.602 1051.31 367.657 1054.72 363.194C1055.4 362.228 1056.26 361.25 1057.12 360.272C1068.55 348.282 1086.87 346.01 1100.9 354.72C1101.86 355.397 1103.01 356.063 1103.99 356.924C1108.46 360.333 1111.87 364.732 1114.03 369.58C1116.99 375.485 1117.97 382.255 1117.28 388.761C1116.97 392.658 1115.92 396.418 1114.12 400.041C1112.98 402.514 1111.64 404.63 1110.1 406.574Z" fill="url(#paint21_linear_1_837)"/>
<path d="M1101.79 360.018C1088 349.262 1068.03 351.823 1057.28 365.616C1046.52 379.41 1049.08 399.373 1062.87 410.129C1076.67 420.886 1096.63 418.324 1107.39 404.531C1118.14 390.738 1115.58 370.774 1101.79 360.018Z" fill="url(#paint22_linear_1_837)"/>
<mask id="mask0_1_837" style="mask-type:luminance" maskUnits="userSpaceOnUse" x="1050" y="353" width="65" height="64">
<path d="M1101.79 360.018C1088 349.262 1068.03 351.823 1057.28 365.616C1046.52 379.41 1049.08 399.373 1062.87 410.129C1076.67 420.886 1096.63 418.324 1107.39 404.531C1118.14 390.738 1115.58 370.774 1101.79 360.018Z" fill="white"/>
</mask>
<g mask="url(#mask0_1_837)">
<path opacity="0.35" d="M1145.19 365.938L1134.89 357.914L1021.02 405.219L1031.31 413.243L1145.19 365.938Z" fill="url(#paint23_linear_1_837)"/>
<path opacity="0.35" d="M1157.62 375.673L1152.18 371.402L1038.31 418.707L1043.75 422.977L1157.62 375.673Z" fill="url(#paint24_linear_1_837)"/>
</g>
<path opacity="0.1" d="M585.071 228.249C584.134 220.473 568.206 219.501 541.346 228.249C542.282 229.869 543.532 231.165 544.156 232.785C554.776 231.489 561.959 232.137 563.208 235.701C564.458 238.941 559.773 244.449 551.028 250.605C550.715 249.633 550.403 248.661 550.403 247.365C550.403 247.041 550.403 247.041 550.091 246.717C549.466 244.125 548.529 241.533 547.28 238.941V238.617C539.159 219.825 522.294 206.216 502.305 202.652C500.743 202.328 499.181 202.328 497.62 202.004C496.058 202.004 494.496 201.68 492.935 201.68C492.622 201.68 492.622 201.68 492.31 201.68C489.187 201.68 486.376 202.004 483.565 202.328C482.003 202.652 480.442 202.976 478.88 203.3C478.568 203.3 478.568 203.3 478.255 203.3C476.694 203.624 475.132 203.948 473.883 204.596C472.321 204.92 471.072 205.568 469.51 206.216H469.198C467.949 206.864 466.387 207.512 465.138 208.16C464.825 208.16 464.825 208.484 464.513 208.484C463.264 209.132 462.014 209.78 460.765 210.752C459.516 211.4 458.267 212.372 457.33 213.345C457.017 213.345 457.017 213.668 456.705 213.668C456.393 213.992 456.08 214.317 455.768 214.317C455.143 214.965 454.206 215.613 453.582 216.261C453.269 216.585 453.269 216.585 452.957 216.909C452.332 217.557 451.395 218.205 450.771 218.853C450.771 218.853 450.771 218.853 450.458 219.177C449.834 219.825 448.897 220.797 448.272 221.445C446.086 224.037 443.899 226.629 442.026 229.545L441.713 229.869C441.089 230.517 440.776 231.489 440.152 232.461C440.152 232.785 439.839 232.785 439.839 233.109C439.527 233.757 438.902 234.729 438.59 235.377C438.59 235.701 438.278 235.701 438.278 236.025C437.965 236.997 437.653 237.645 437.028 238.617C437.028 238.941 436.716 238.941 436.716 239.265C436.091 240.885 435.467 242.505 434.842 243.801C434.53 244.449 434.53 244.773 434.217 245.421C434.217 245.745 434.217 245.745 433.905 246.069C433.593 247.041 433.593 247.689 433.28 248.661C433.28 248.985 432.968 249.309 432.968 249.633C432.656 250.281 432.656 251.253 432.656 251.902C432.656 252.226 432.656 252.874 432.343 253.198C432.343 253.846 432.031 254.494 432.031 255.142C432.031 255.466 432.031 256.114 432.031 256.438C432.031 257.086 432.031 258.058 431.719 258.706C431.719 259.03 431.719 259.354 431.719 259.678C431.719 260.974 431.719 261.946 431.719 263.242C431.719 265.51 431.719 267.454 432.031 269.398C410.168 282.034 397.05 293.375 399.237 299.531C401.423 305.687 418.601 305.363 442.962 299.531C446.71 304.715 451.083 309.575 456.08 313.463C465.45 320.591 476.382 324.803 488.875 325.451C489.812 325.451 491.061 325.451 491.998 325.451C493.247 325.451 494.184 325.451 495.433 325.451C495.746 325.451 496.058 325.451 496.37 325.451C496.995 325.451 497.932 325.451 498.557 325.127C498.869 325.127 499.494 325.127 499.806 325.127C500.431 325.127 501.368 324.803 501.992 324.803C502.305 324.803 502.929 324.803 503.242 324.479C503.866 324.479 504.803 324.155 505.428 324.155C505.74 324.155 506.053 323.831 506.365 323.831C507.302 323.507 507.927 323.507 508.864 323.183C509.176 323.183 509.176 323.183 509.488 322.859C511.674 322.211 513.548 321.239 515.735 320.591C516.047 320.591 516.047 320.267 516.359 320.267C517.296 319.943 517.921 319.619 518.858 318.971C519.17 318.971 519.17 318.647 519.483 318.647C520.107 318.323 521.044 317.675 521.669 317.351C521.981 317.351 521.981 317.027 522.294 317.027C523.231 316.703 523.855 316.055 524.792 315.407L525.104 315.083C527.915 313.139 530.414 310.871 532.913 308.603C533.537 307.955 534.162 307.307 534.787 306.659L535.099 306.335C535.099 306.335 535.099 306.335 535.411 306.011C536.036 305.363 536.661 304.715 536.973 304.067L537.285 303.743C537.285 303.743 537.285 303.743 537.598 303.419C538.222 302.771 538.535 302.123 539.159 301.475C539.159 301.475 539.159 301.475 539.159 301.151C546.655 291.431 551.34 279.118 551.965 265.51C551.965 264.538 551.965 263.566 551.965 262.594C551.965 261.298 551.965 260.002 551.965 258.706C551.965 258.382 551.965 258.058 551.965 257.734C551.965 257.41 551.965 257.086 551.965 256.762C574.452 246.069 586.008 235.053 585.071 228.249ZM420.787 291.755C419.538 288.19 424.223 283.006 433.28 276.526C433.28 276.526 433.28 276.526 433.28 276.202C433.593 277.822 433.905 279.442 434.217 281.062C434.53 282.358 434.842 283.978 435.467 285.274C436.404 287.866 437.341 290.459 438.59 293.051C438.902 293.375 438.902 293.699 439.215 294.347C428.908 295.967 421.724 295.319 420.787 291.755Z" fill="#162D81"/>
<path opacity="0.1" d="M1446.47 468.015C1424.61 445.335 1389.31 445.335 1367.45 468.015C1345.59 490.696 1345.59 527.309 1367.45 549.99C1389.31 572.67 1424.61 572.67 1446.47 549.99C1468.33 527.309 1468.33 490.696 1446.47 468.015Z" fill="#162D81"/>
<path opacity="0.1" d="M969.546 78.2331C947.683 55.5525 912.39 55.5525 890.527 78.2331C868.664 100.914 868.664 137.527 890.527 160.207C912.39 182.888 947.683 182.888 969.546 160.207C991.409 137.527 991.409 100.59 969.546 78.2331Z" fill="#162D81"/>
<path opacity="0.1" d="M987.661 43.8881C982.664 38.704 974.231 38.704 969.234 43.8881C964.237 49.0722 964.237 57.8205 969.234 63.0046C974.231 68.1888 982.664 68.1888 987.661 63.0046C992.658 57.8205 992.658 49.0722 987.661 43.8881Z" fill="#162D81"/>
<path d="M127.622 158.818C129.246 158.818 130.562 157.661 130.562 156.233C130.562 154.806 129.246 153.649 127.622 153.649C125.998 153.649 124.682 154.806 124.682 156.233C124.682 157.661 125.998 158.818 127.622 158.818Z" fill="#CBFEFE"/>
<path d="M511.917 137.673C511.917 139.083 510.581 140.257 508.978 140.257C507.374 140.257 506.038 139.083 506.038 137.673C506.038 136.263 507.374 135.089 508.978 135.089C510.581 134.854 511.917 136.263 511.917 137.673Z" fill="#CBFEFE"/>
<path d="M1371.37 344.418C1371.37 345.827 1370.03 347.002 1368.43 347.002C1366.83 347.002 1365.49 345.827 1365.49 344.418C1365.49 343.008 1366.83 341.833 1368.43 341.833C1370.03 341.833 1371.37 343.008 1371.37 344.418Z" fill="#CBFEFE"/>
<path d="M590.487 509.344C590.487 510.519 589.418 511.223 588.349 511.223C587.013 511.223 586.211 510.284 586.211 509.344C586.211 508.169 587.28 507.464 588.349 507.464C589.685 507.464 590.487 508.404 590.487 509.344Z" fill="#CBFEFE"/>
<path d="M972.376 61.0838C973.445 61.7886 973.445 62.9633 972.644 63.903C971.842 64.8428 970.506 64.8428 969.704 64.138C968.635 63.4331 968.635 62.2584 969.437 61.3187C969.971 60.6139 971.307 60.379 972.376 61.0838Z" fill="#CBFEFE"/>
<path d="M1368.43 267.124C1368.43 269.943 1366.03 272.057 1362.82 272.057C1359.61 272.057 1357.21 269.943 1357.21 267.124C1357.21 264.304 1359.61 262.19 1362.82 262.19C1366.03 262.19 1368.43 264.304 1368.43 267.124Z" fill="#CBFEFE"/>
<path d="M526.616 153.649C526.616 156.468 524.21 158.583 521.003 158.583C517.797 158.583 515.391 156.468 515.391 153.649C515.391 150.83 517.797 148.715 521.003 148.715C524.21 148.715 526.616 150.83 526.616 153.649Z" fill="#CBFEFE"/>
<path d="M1034.38 250.208C1034.38 253.027 1031.97 255.142 1028.76 255.142C1025.56 255.142 1023.15 253.027 1023.15 250.208C1023.15 247.389 1025.56 245.274 1028.76 245.274C1031.7 245.274 1034.38 247.389 1034.38 250.208Z" fill="#CBFEFE"/>
<path d="M523.943 409.261C523.943 410.67 522.607 411.845 521.004 411.845C519.4 411.845 518.064 410.67 518.064 409.261C518.064 407.851 519.4 406.676 521.004 406.676C522.607 406.676 523.943 407.851 523.943 409.261Z" fill="#CBFEFE"/>
<path d="M956.61 64.6077C956.61 66.0174 955.273 67.1921 953.67 67.1921C952.066 67.1921 950.73 66.0174 950.73 64.6077C950.73 63.1981 952.066 62.0234 953.67 62.0234C955.273 62.0234 956.61 63.1981 956.61 64.6077Z" fill="#CBFEFE"/>
<path d="M805.083 398.454C805.083 399.628 804.014 400.568 802.677 400.568C801.341 400.568 800.272 399.628 800.272 398.454C800.272 397.279 801.341 396.339 802.677 396.339C804.014 396.339 805.083 397.279 805.083 398.454Z" fill="#CBFEFE"/>
<path d="M771.143 441.682C769.807 441.682 768.738 440.742 768.738 439.568C768.738 438.393 769.807 437.453 771.143 437.453C772.479 437.453 773.548 438.393 773.548 439.568C773.548 440.742 772.479 441.682 771.143 441.682Z" fill="#CBFEFE"/>
<path d="M984.402 617.65C985.14 617.65 985.738 617.124 985.738 616.475C985.738 615.827 985.14 615.301 984.402 615.301C983.664 615.301 983.066 615.827 983.066 616.475C983.066 617.124 983.664 617.65 984.402 617.65Z" fill="#CBFEFE"/>
<path d="M590.754 552.573C590.754 553.277 590.219 553.747 589.418 553.747C588.616 553.747 588.081 553.277 588.081 552.573C588.081 551.868 588.616 551.398 589.418 551.398C590.219 551.398 590.754 551.868 590.754 552.573Z" fill="#CBFEFE"/>
<path d="M1120.43 792.443C1121.5 793.148 1121.5 794.323 1120.7 795.263C1119.89 796.202 1118.56 796.202 1117.49 795.498C1116.42 794.793 1116.42 793.618 1117.22 792.678C1118.02 791.739 1119.36 791.973 1120.43 792.443Z" fill="#CBFEFE"/>
<path d="M675.203 490.784C676.272 491.489 676.272 492.663 675.47 493.603C674.668 494.543 673.332 494.543 672.263 493.838C671.194 493.133 671.194 491.959 671.996 491.019C672.798 490.314 674.134 490.079 675.203 490.784Z" fill="#CBFEFE"/>
<path d="M90.4754 94.2097C91.2133 94.2097 91.8116 93.6838 91.8116 93.035C91.8116 92.3863 91.2133 91.8604 90.4754 91.8604C89.7374 91.8604 89.1392 92.3863 89.1392 93.035C89.1392 93.6838 89.7374 94.2097 90.4754 94.2097Z" fill="#CBFEFE"/>
<path d="M808.557 553.512C808.557 554.217 808.022 554.687 807.221 554.687C806.419 554.687 805.885 554.217 805.885 553.512C805.885 552.807 806.419 552.337 807.221 552.337C808.022 552.572 808.557 553.042 808.557 553.512Z" fill="#CBFEFE"/>
<path d="M1142.88 764.251C1143.15 764.721 1142.88 765.426 1142.08 765.661C1141.54 765.895 1140.74 765.661 1140.47 764.956C1140.21 764.486 1140.47 763.781 1141.27 763.546C1142.08 763.311 1142.61 763.546 1142.88 764.251Z" fill="#CBFEFE"/>
<path d="M610.797 605.903L613.736 610.837C614.805 612.482 616.409 613.891 618.012 614.831L623.357 617.415C623.624 617.415 623.624 617.885 623.357 617.885L618.012 620.469C616.142 621.409 614.538 622.819 613.736 624.463L610.797 629.397C610.797 629.632 610.262 629.632 610.262 629.397L607.323 624.463C606.254 622.819 604.65 621.409 603.047 620.469L597.702 617.885C597.435 617.885 597.435 617.415 597.702 617.415L603.047 614.831C604.917 613.891 606.521 612.482 607.323 610.837L610.262 605.903C610.262 605.668 610.53 605.668 610.797 605.903Z" fill="white"/>
<path d="M1238.55 632.451L1241.49 637.385C1242.56 639.029 1244.16 640.439 1245.77 641.379L1251.11 643.963C1251.38 643.963 1251.38 644.433 1251.11 644.433L1245.77 647.017C1243.9 647.957 1242.29 649.367 1241.49 651.011L1238.55 655.945C1238.55 656.18 1238.02 656.18 1238.02 655.945L1235.08 651.011C1234.01 649.367 1232.4 647.957 1230.8 647.017L1225.46 644.433C1225.19 644.433 1225.19 643.963 1225.46 643.963L1230.8 641.379C1232.67 640.439 1234.27 639.029 1235.08 637.385L1238.02 632.451C1238.02 632.216 1238.55 632.216 1238.55 632.451Z" fill="white"/>
<path d="M705.936 163.751L708.875 168.685C709.944 170.33 711.548 171.739 713.419 172.679L719.031 175.263C719.298 175.263 719.298 175.733 719.031 175.733L713.419 178.318C711.548 179.257 709.944 180.667 708.875 182.311L705.936 187.245C705.936 187.48 705.401 187.48 705.401 187.245L702.462 182.311C701.393 180.667 699.789 179.257 697.918 178.318L692.306 175.733C692.039 175.733 692.039 175.263 692.306 175.263L697.918 172.679C699.789 171.739 701.393 170.33 702.462 168.685L705.401 163.751C705.401 163.516 705.668 163.516 705.936 163.751Z" fill="white"/>
<path d="M240.399 123.342L241.468 125.222C241.735 125.927 242.537 126.396 243.071 126.631L245.209 127.571V127.806L243.071 128.746C242.269 128.981 241.735 129.686 241.468 130.155L240.399 132.035H240.131L239.062 130.155C238.795 129.451 237.993 128.981 237.459 128.746L235.321 127.806V127.571L237.459 126.631C238.261 126.396 238.795 125.692 239.062 125.222L240.399 123.342C240.399 123.107 240.131 123.107 240.399 123.342Z" fill="white"/>
<path d="M702.461 556.097L703.53 557.976C703.798 558.681 704.599 559.151 705.134 559.386L707.272 560.326V560.56L705.134 561.5C704.332 561.735 703.798 562.44 703.53 562.91L702.461 564.789H702.194L701.125 562.91C700.858 562.205 700.056 561.735 699.522 561.5L697.384 560.56V560.326L699.522 559.386C700.323 559.151 700.858 558.446 701.125 557.976L702.461 556.097C702.194 556.097 702.194 556.097 702.461 556.097Z" fill="white"/>
<path d="M1055.22 0L1056.29 1.87951C1056.56 2.58432 1057.36 3.05419 1057.89 3.28913L1060.03 4.22888V4.46381L1057.89 5.40356C1057.09 5.6385 1056.56 6.34331 1056.29 6.81318L1055.22 8.69267H1054.96L1053.89 6.81318C1053.62 6.10837 1052.82 5.6385 1052.28 5.40356L1050.14 4.46381V4.22888L1052.28 3.28913C1053.08 3.05419 1053.62 2.34938 1053.89 1.87951L1055.22 0C1054.95 0 1054.95 0 1055.22 0Z" fill="white"/>
<path d="M880.712 310.352L882.315 312.701C882.85 313.641 883.652 314.111 884.453 314.581L887.126 315.991V316.225L884.453 317.635C883.384 318.105 882.85 318.81 882.315 319.515L880.712 321.864H880.445L878.841 319.515C878.307 318.575 877.505 318.105 876.703 317.635L874.031 316.225V315.991L876.703 314.581C877.772 314.111 878.307 313.406 878.841 312.701L880.712 310.352Z" fill="white"/>
<path d="M1310.97 127.806L1312.58 130.155C1313.11 131.095 1313.91 131.565 1314.71 132.035L1317.39 133.445V133.68L1314.71 135.089C1313.65 135.559 1313.11 136.264 1312.58 136.969L1310.97 139.318H1310.71L1309.1 136.969C1308.57 136.029 1307.77 135.559 1306.96 135.089L1304.29 133.68V133.445L1306.96 132.035C1308.03 131.565 1308.57 130.86 1309.1 130.155L1310.97 127.806C1310.97 127.571 1310.71 127.571 1310.97 127.806Z" fill="white"/>
<path d="M1213.7 515.217L1215.83 518.506C1216.64 519.681 1217.71 520.621 1219.04 521.326L1222.78 523.205C1223.05 523.205 1223.05 523.44 1222.78 523.44L1219.04 525.32C1217.71 526.024 1216.64 526.964 1215.83 528.139L1213.7 531.428C1213.7 531.663 1213.43 531.663 1213.43 531.428L1211.29 528.139C1210.49 526.964 1209.42 526.024 1208.08 525.32L1204.34 523.44C1204.08 523.44 1204.08 523.205 1204.34 523.205L1208.08 521.326C1209.42 520.621 1210.49 519.681 1211.29 518.506L1213.43 515.217H1213.7Z" fill="white"/>
<defs>
<linearGradient id="paint0_linear_1_837" x1="516.668" y1="1100.4" x2="731.94" y2="680.108" gradientUnits="userSpaceOnUse">
<stop stop-color="#F9CABD"/>
<stop offset="1" stop-color="white"/>
</linearGradient>
<linearGradient id="paint1_linear_1_837" x1="1574" y1="-222" x2="747.937" y2="700.888" gradientUnits="userSpaceOnUse">
<stop stop-color="#FF9505"/>
<stop offset="1" stop-color="#FBC2D1"/>
</linearGradient>
<linearGradient id="paint2_linear_1_837" x1="865.686" y1="674.312" x2="981.398" y2="531.457" gradientUnits="userSpaceOnUse">
<stop offset="0.2378" stop-color="#FADEC5"/>
<stop offset="1" stop-color="#F4809E"/>
</linearGradient>
<linearGradient id="paint3_linear_1_837" x1="870.755" y1="459.441" x2="1002.41" y2="445.862" gradientUnits="userSpaceOnUse">
<stop stop-color="#C41F66"/>
<stop offset="1" stop-color="#752B8A"/>
</linearGradient>
<linearGradient id="paint4_linear_1_837" x1="927.436" y1="444.39" x2="991.667" y2="437.766" gradientUnits="userSpaceOnUse">
<stop stop-color="#C41F66"/>
<stop offset="1" stop-color="#752B8A"/>
</linearGradient>
<linearGradient id="paint5_linear_1_837" x1="1019.14" y1="548.864" x2="1092.59" y2="541.289" gradientUnits="userSpaceOnUse">
<stop stop-color="#C41F66"/>
<stop offset="1" stop-color="#752B8A"/>
</linearGradient>
<linearGradient id="paint6_linear_1_837" x1="1032.42" y1="522.862" x2="1090" y2="516.924" gradientUnits="userSpaceOnUse">
<stop stop-color="#C41F66"/>
<stop offset="1" stop-color="#752B8A"/>
</linearGradient>
<linearGradient id="paint7_linear_1_837" x1="946.451" y1="455.976" x2="1124.62" y2="437.601" gradientUnits="userSpaceOnUse">
<stop stop-color="#20E8C1"/>
<stop offset="0.0902244" stop-color="#1ADBBF"/>
<stop offset="0.3106" stop-color="#0FC0B9"/>
<stop offset="0.5347" stop-color="#07ACB6"/>
<stop offset="0.7626" stop-color="#02A1B4"/>
<stop offset="1" stop-color="#009DB3"/>
</linearGradient>
<radialGradient id="paint8_radial_1_837" cx="0" cy="0" r="1" gradientUnits="userSpaceOnUse" gradientTransform="translate(1043.17 436.577) rotate(-5.88864) scale(99.1647 99.1647)">
<stop offset="0.027027" stop-color="#5AB5CB"/>
<stop offset="1" stop-color="#D848E0"/>
</radialGradient>
<linearGradient id="paint9_linear_1_837" x1="976.529" y1="520.916" x2="1120.14" y2="342.064" gradientUnits="userSpaceOnUse">
<stop offset="0.2378" stop-color="#FADEC5"/>
<stop offset="1" stop-color="#F4809E"/>
</linearGradient>
<linearGradient id="paint10_linear_1_837" x1="976.529" y1="520.916" x2="1120.14" y2="342.064" gradientUnits="userSpaceOnUse">
<stop offset="0.2378" stop-color="#FADEC5"/>
<stop offset="1" stop-color="#F4809E"/>
</linearGradient>
<linearGradient id="paint11_linear_1_837" x1="997.603" y1="433.67" x2="1154.14" y2="417.525" gradientUnits="userSpaceOnUse">
<stop offset="0.2378" stop-color="#FADEC5"/>
<stop offset="1" stop-color="#F4809E"/>
</linearGradient>
<linearGradient id="paint12_linear_1_837" x1="986.861" y1="533.221" x2="886.869" y2="656.211" gradientUnits="userSpaceOnUse">
<stop offset="0.2378" stop-color="#FADEC5"/>
<stop offset="1" stop-color="#F4809E"/>
</linearGradient>
<linearGradient id="paint13_linear_1_837" x1="948.439" y1="501.983" x2="848.445" y2="624.976" gradientUnits="userSpaceOnUse">
<stop offset="0.2378" stop-color="#FADEC5"/>
<stop offset="1" stop-color="#F4809E"/>
</linearGradient>
<linearGradient id="paint14_linear_1_837" x1="969.643" y1="519.223" x2="869.65" y2="642.214" gradientUnits="userSpaceOnUse">
<stop offset="0.2378" stop-color="#FADEC5"/>
<stop offset="1" stop-color="#F4809E"/>
</linearGradient>
<linearGradient id="paint15_linear_1_837" x1="1023.94" y1="563.357" x2="923.942" y2="686.35" gradientUnits="userSpaceOnUse">
<stop offset="0.2378" stop-color="#FADEC5"/>
<stop offset="1" stop-color="#F4809E"/>
</linearGradient>
<linearGradient id="paint16_linear_1_837" x1="932.237" y1="488.823" x2="832.249" y2="611.808" gradientUnits="userSpaceOnUse">
<stop offset="0.2378" stop-color="#FADEC5"/>
<stop offset="1" stop-color="#F4809E"/>
</linearGradient>
<linearGradient id="paint17_linear_1_837" x1="938.666" y1="514.413" x2="1043.07" y2="503.644" gradientUnits="userSpaceOnUse">
<stop stop-color="#C41F35"/>
<stop offset="1" stop-color="#752B8A"/>
</linearGradient>
<linearGradient id="paint18_linear_1_837" x1="938.666" y1="514.413" x2="1043.07" y2="503.644" gradientUnits="userSpaceOnUse">
<stop stop-color="#C41F35"/>
<stop offset="1" stop-color="#752B8A"/>
</linearGradient>
<linearGradient id="paint19_linear_1_837" x1="957.235" y1="502.141" x2="1042.02" y2="493.396" gradientUnits="userSpaceOnUse">
<stop stop-color="#C41F66"/>
<stop offset="1" stop-color="#752B8A"/>
</linearGradient>
<linearGradient id="paint20_linear_1_837" x1="1037.4" y1="390.023" x2="1128.61" y2="380.615" gradientUnits="userSpaceOnUse">
<stop stop-color="#C41F66"/>
<stop offset="1" stop-color="#752B8A"/>
</linearGradient>
<linearGradient id="paint21_linear_1_837" x1="1047.35" y1="388.592" x2="1117.27" y2="381.379" gradientUnits="userSpaceOnUse">
<stop stop-color="#C41F66"/>
<stop offset="1" stop-color="#752B8A"/>
</linearGradient>
<linearGradient id="paint22_linear_1_837" x1="1050.78" y1="388.256" x2="1113.81" y2="381.755" gradientUnits="userSpaceOnUse">
<stop stop-color="#20E8C1"/>
<stop offset="0.0902244" stop-color="#1ADBBF"/>
<stop offset="0.3106" stop-color="#0FC0B9"/>
<stop offset="0.5347" stop-color="#07ACB6"/>
<stop offset="0.7626" stop-color="#02A1B4"/>
<stop offset="1" stop-color="#009DB3"/>
</linearGradient>
<linearGradient id="paint23_linear_1_837" x1="1019.69" y1="392.157" x2="1146.49" y2="379.079" gradientUnits="userSpaceOnUse">
<stop stop-color="#20E8C1"/>
<stop offset="1" stop-color="#0070B3"/>
</linearGradient>
<linearGradient id="paint24_linear_1_837" x1="1036.73" y1="403.483" x2="1159.13" y2="390.859" gradientUnits="userSpaceOnUse">
<stop stop-color="#20E8C1"/>
<stop offset="1" stop-color="#0070B3"/>
</linearGradient>
</defs>
</svg>
